name ./resultDataOpenSim/trcMotMarkerGrf/sub06/grf-12-03.mot
datacolumns 19
datarows 20
range 1.04400000 1.12000000
endheader

                time	     ground_force_vx	     ground_force_vy	     ground_force_vz	     ground_force_px	     ground_force_py	     ground_force_pz	   l_ground_force_vx	   l_ground_force_vy	   l_ground_force_vz	   l_ground_force_px	   l_ground_force_py	   l_ground_force_pz	     ground_torque_x	     ground_torque_y	     ground_torque_z	   l_ground_torque_x	   l_ground_torque_y	   l_ground_torque_z	
          1.04400000	        -21.13286166	        308.08388508	         18.89618461	          0.70731707	          0.00000000	          0.11889265	        187.53300648	        518.46264936	         26.50668733	          0.07730791	         -0.02499707	         -0.03044054	          0.00000000	         -0.17246072	          0.00000000	          0.00000000	         -2.22169293	          0.00000000	
          1.04800000	        -33.69052014	        414.94214845	         21.66589993	          0.71271373	          0.00000000	          0.11916970	        183.54731039	        484.98711477	         24.23202324	          0.07832872	         -0.02499700	         -0.02995596	          0.00000000	         -0.40542504	          0.00000000	          0.00000000	         -2.04364889	          0.00000000	
          1.05200000	        -49.47017192	        495.66623166	         20.80765850	          0.71745385	          0.00000000	          0.12063638	        177.51450944	        447.88585157	         21.99432263	          0.07934448	         -0.02499652	         -0.02957321	          0.00000000	         -0.56888140	          0.00000000	          0.00000000	         -1.84762023	          0.00000000	
          1.05600000	        -68.43856610	        553.62974242	         15.92452855	          0.72192169	          0.00000000	          0.12273316	        169.18368135	        407.33376937	         19.82079960	          0.08039455	         -0.02499556	         -0.02930598	          0.00000000	         -0.60255088	          0.00000000	          0.00000000	         -1.63741048	          0.00000000	
          1.06000000	        -89.99193037	        594.71963569	          7.69846285	          0.72697476	          0.00000000	          0.12456383	        158.26913700	        363.98912661	         17.68878356	          0.08154444	         -0.02499460	         -0.02912674	          0.00000000	         -0.44992472	          0.00000000	          0.00000000	         -1.42004404	          0.00000000	
          1.06400000	       -113.21367971	        623.49919615	         -2.30169079	          0.73300213	          0.00000000	          0.12577513	        144.57560525	        318.93162312	         15.56656921	          0.08288988	         -0.02499436	         -0.02900079	          0.00000000	         -0.08302742	          0.00000000	          0.00000000	         -1.20482449	          0.00000000	
          1.06800000	       -136.63252868	        642.68149468	        -12.35340981	          0.73936993	          0.00000000	          0.12667102	        128.22753792	        273.56134986	         13.46219458	          0.08455412	         -0.02499468	         -0.02891275	          0.00000000	          0.47619509	          0.00000000	          0.00000000	         -1.00142164	          0.00000000	
          1.07200000	       -158.44510500	        655.19515515	        -21.18340254	          0.74506303	          0.00000000	          0.12755938	        109.83582129	        229.49616629	         11.42964814	          0.08662195	         -0.02499367	         -0.02888157	          0.00000000	          1.14702637	          0.00000000	          0.00000000	         -0.81800465	          0.00000000	
          1.07600000	       -177.67179931	        665.58042413	        -28.18813403	          0.74973299	          0.00000000	          0.12837768	         90.47290647	        188.36987144	          9.53487800	          0.08908951	         -0.02499239	         -0.02893633	          0.00000000	          1.80081784	          0.00000000	          0.00000000	         -0.66022287	          0.00000000	
          1.08000000	       -194.76818136	        679.06109089	        -33.36277930	          0.75406503	          0.00000000	          0.12891365	         71.45425620	        151.49918054	          7.82593673	          0.09184279	         -0.02499120	         -0.02907984	          0.00000000	          2.29204866	          0.00000000	          0.00000000	         -0.53099695	          0.00000000	
          1.08400000	       -210.56558431	        699.56592356	        -36.93459726	          0.75883972	          0.00000000	          0.12910199	         54.02455297	        119.58615148	          6.32853265	          0.09465856	         -0.02499227	         -0.02929188	          0.00000000	          2.50034928	          0.00000000	          0.00000000	         -0.43062453	          0.00000000	
          1.08800000	       -224.89437752	        728.53580611	        -38.97558161	          0.76383862	          0.00000000	          0.12904782	         39.08420732	         92.64893576	          5.04896387	          0.09729024	         -0.02499381	         -0.02953053	          0.00000000	          2.36778219	          0.00000000	          0.00000000	         -0.35702381	          0.00000000	
          1.09200000	       -236.82772123	        765.03468110	        -39.40710117	          0.76803718	          0.00000000	          0.12891625	         27.06480508	         70.18403743	          3.98085166	          0.09967279	         -0.02499485	         -0.02968126	          0.00000000	          1.91728447	          0.00000000	          0.00000000	         -0.30631152	          0.00000000	
          1.09600000	       -246.05835912	        806.76076565	        -38.23664195	          0.77087877	          0.00000000	          0.12885094	         17.96449273	         51.41549071	          3.12311317	          0.10183869	         -0.02499505	         -0.02955821	          0.00000000	          1.24594587	          0.00000000	          0.00000000	         -0.27370116	          0.00000000	
          1.10000000	       -253.29866658	        851.24460188	        -35.70121556	          0.77283032	          0.00000000	          0.12882337	         11.45899427	         35.49924302	          2.47681025	          0.10371689	         -0.02499617	         -0.02894989	          0.00000000	          0.49648175	          0.00000000	          0.00000000	         -0.25431904	          0.00000000	
          1.10400000	       -259.29714027	        896.34229416	        -32.38819989	          0.77455760	          0.00000000	          0.12866456	          7.00480449	         21.66415292	          2.01361328	          0.10582981	         -0.02499697	         -0.02731702	          0.00000000	         -0.18151406	          0.00000000	          0.00000000	         -0.24363606	          0.00000000	
          1.10800000	       -264.10587613	        939.79136454	        -29.27325775	          0.77610291	          0.00000000	          0.12838795	          3.92681662	          9.32527945	          1.67256503	          0.10986563	         -0.02499792	         -0.02285357	          0.00000000	         -0.66642859	          0.00000000	          0.00000000	         -0.23766727	          0.00000000	
          1.11200000	       -267.42703401	        978.81530970	        -27.43962490	          0.77725006	          0.00000000	          0.12819673	          0.00000000	          0.00000000	          0.00000000	          0.00000000	          0.00000000	          0.00000000	          0.00000000	         -0.88628406	          0.00000000	          0.00000000	          0.00000000	          0.00000000	
          1.11600000	       -269.09729248	       1010.72395335	        -27.68193162	          0.77809561	          0.00000000	          0.12825131	          0.00000000	          0.00000000	          0.00000000	          0.00000000	          0.00000000	          0.00000000	          0.00000000	         -0.82507062	          0.00000000	          0.00000000	          0.00000000	          0.00000000	
          1.12000000	       -268.97765159	       1034.04043270	        -30.33309351	          0.77890725	          0.00000000	          0.12855250	          0.00000000	          0.00000000	          0.00000000	          0.00000000	          0.00000000	          0.00000000	          0.00000000	         -0.51614727	          0.00000000	          0.00000000	          0.00000000	          0.00000000	
